/* XPM */
static char *_c7be1913c4d4d77fab44853c522b999[] = {
/* columns rows colors chars-per-pixel */
"30 30 98 2 ",
"   c black",
".  c #030404",
"X  c #090C0C",
"o  c #0B0F0F",
"O  c #0D1010",
"+  c #0C1110",
"@  c #141A1A",
"#  c #2F3A3A",
"$  c #2E3D3D",
"%  c #334343",
"&  c #364747",
"*  c #3E5352",
"=  c #405554",
"-  c #405655",
";  c #4B6262",
":  c #4B6362",
">  c #4E6363",
",  c #4C6565",
"<  c #4D6766",
"1  c #4F6666",
"2  c #4F6767",
"3  c #4F6968",
"4  c #516767",
"5  c #506B6A",
"6  c #526B6B",
"7  c #526C6C",
"8  c #526D6C",
"9  c #536F6E",
"0  c #5F7171",
"q  c #667B7A",
"w  c #667C7C",
"e  c #039492",
"r  c #099694",
"t  c #0E9997",
"y  c #0F9997",
"u  c #129B99",
"i  c #149B99",
"p  c #139C9A",
"a  c #159C9A",
"s  c #149D9B",
"d  c #169D9B",
"f  c #179E9C",
"g  c #199F9D",
"h  c #41B2B0",
"j  c #4FB8B6",
"k  c #50BAB8",
"l  c #51BAB8",
"z  c #51BBB9",
"x  c #50BCBB",
"c  c #51BCBB",
"v  c #50BDBB",
"b  c #5ECDCC",
"n  c #5ECFCD",
"m  c #6EC8C6",
"M  c #75CAC9",
"N  c #7BCECD",
"B  c #7CCFCD",
"V  c #68D3D2",
"C  c #68D4D2",
"Z  c #84A7A7",
"A  c #86AAA9",
"S  c #82AEAE",
"D  c #84AFAE",
"F  c #88E6E4",
"G  c #A8E5E4",
"H  c #ADE6E5",
"J  c #AEE7E6",
"K  c #AFE7E6",
"L  c #B0EAE9",
"P  c #B2ECEB",
"I  c #B4EFEE",
"U  c #B8EBEA",
"Y  c #B8ECEB",
"T  c #B4F0EF",
"R  c #B5F0EF",
"E  c #B6F1F0",
"W  c #B7F2F1",
"Q  c #B6F7F6",
"!  c #B8F5F4",
"~  c #B9F5F4",
"^  c #B9F6F5",
"/  c #BAF6F5",
"(  c #BCF8F6",
")  c #BCFAF9",
"_  c #BCFCFB",
"`  c #C1F8F7",
"'  c #C1F9F8",
"]  c #C2F8F8",
"[  c #C3F8F8",
"{  c #C2FBFA",
"}  c #C3FBFA",
"|  c #C4FDFC",
" . c #C4FEFE",
".. c #C4FFFE",
"X. c #C8FFFF",
"o. c #D2FFFF",
"O. c #E3FFFF",
"+. c None",
/* pixels */
"+.+.+.+.+.+.+.+.+.+.+.+.+.+.+.+.+.+.+.+.+.+.+.+.+.+.+.+.+.+.",
"+.+.+.+.+.+.+.+.+.+.+.+.+.+.+.+.+.+.+.+.+.+.+.      +.+.+.+.",
"+.+.+.+.+.+.+.+.+.+.+.+.+.+.+.+.+.+.+.+.+.+.          +.+.+.",
"+.+.+.+.+.+.+.+.+.+.+.+.+.+.+.+.+.+.+.+.+.              +.+.",
"+.+.+.+.+.+.+.+.+.+.+.+.+.+.+.+.+.+.+.+.                  +.",
"+.+.+.+.+.+.+.+.+.+.+.+.+.+.      +.+.                    +.",
"+.+.+.+.+.+.+.+.+.+.+.+.+.                                +.",
"+.+.+.+.+.+.+.+.+.+.+.+.+.                              +.+.",
"+.+.+.+.+.+.+.+.+.+.+.+.+.                            +.+.+.",
"+.+.+.+.+.+.+.+.+.+.+.+.+.+.                        +.+.+.+.",
"+.+.+.+.+.+.+.+.+.+.+.+.+.    %                   +.+.+.+.+.",
"+.+.+.+.+.+.+.+.+.+.+.+.    3 W *               +.+.+.+.+.+.",
"+.+.+.+.+.+.+.+.+.+.+.    9 ! I R -             +.+.+.+.+.+.",
"+.+.+.+.+.+.+.+.+.+.    9 ! P H I R -             +.+.+.+.+.",
"+.+.+.+.+.+.+.+.+.    5 ! P H K H R W &           +.+.+.+.+.",
"+.+.+.+.+.+.+.+.    , _ L K K K P ~ 7 .           +.+.+.+.+.",
"+.+.+.+.+.+.+.    ; X.U Y Y K L ! 9     +.      +.+.+.+.+.+.",
"+.+.+.+.+.+.    4 _ M N B m G ( 9     +.+.+.+.+.+.+.+.+.+.+.",
"+.+.+.+.+.    ,  .l r t e h Q 5     +.+.+.+.+.+.+.+.+.+.+.+.",
"+.+.+.+.    9 | l u f t j  .,     +.+.+.+.+.+.+.+.+.+.+.+.+.",
"+.+.+.    9 ' v d f u l  .>     +.+.+.+.+.+.+.+.+.+.+.+.+.+.",
"+.+.+.  , ] v d f i l [ 4     +.+.+.+.+.+.+.+.+.+.+.+.+.+.+.",
"+.+.+.  w V i d f v ' 5     +.+.+.+.+.+.+.+.+.+.+.+.+.+.+.+.",
"+.+.+.  0 n e d c ' 9     +.+.+.+.+.+.+.+.+.+.+.+.+.+.+.+.+.",
"+.+.  o A F n V ' 9     +.+.+.+.+.+.+.+.+.+.+.+.+.+.+.+.+.+.",
"+.  @ S o.Z q q ,     +.+.+.+.+.+.+.+.+.+.+.+.+.+.+.+.+.+.+.",
"+.  $ O.D +         +.+.+.+.+.+.+.+.+.+.+.+.+.+.+.+.+.+.+.+.",
"+.  o # +   +.+.+.+.+.+.+.+.+.+.+.+.+.+.+.+.+.+.+.+.+.+.+.+.",
"+.+.      +.+.+.+.+.+.+.+.+.+.+.+.+.+.+.+.+.+.+.+.+.+.+.+.+.",
"+.+.+.+.+.+.+.+.+.+.+.+.+.+.+.+.+.+.+.+.+.+.+.+.+.+.+.+.+.+."
};
